<svg width="16" height="16" viewBox="0 0 16 16" fill="none" xmlns="http://www.w3.org/2000/svg">
<path d="M8.00356 3.97019C5.73214 3.97019 3.89999 5.78707 3.89999 8.03957C3.89999 10.2921 5.73214 12.1089 8.00356 12.1089C10.275 12.1089 12.1071 10.2921 12.1071 8.03957C12.1071 5.78707 10.275 3.97019 8.00356 3.97019ZM8.00356 10.6852C6.53571 10.6852 5.33571 9.49873 5.33571 8.03957C5.33571 6.5804 6.53214 5.39394 8.00356 5.39394C9.47499 5.39394 10.6714 6.5804 10.6714 8.03957C10.6714 9.49873 9.47142 10.6852 8.00356 10.6852ZM13.2321 3.80373C13.2321 4.33144 12.8036 4.7529 12.275 4.7529C11.7428 4.7529 11.3178 4.3279 11.3178 3.80373C11.3178 3.27957 11.7464 2.85457 12.275 2.85457C12.8036 2.85457 13.2321 3.27957 13.2321 3.80373ZM15.95 4.76707C15.8893 3.49561 15.5964 2.36936 14.6571 1.44144C13.7214 0.513525 12.5857 0.223108 11.3036 0.159358C9.98213 0.0849829 6.02142 0.0849829 4.69999 0.159358C3.42142 0.219566 2.28571 0.509983 1.34642 1.4379C0.407136 2.36582 0.11785 3.49207 0.0535644 4.76353C-0.0214355 6.07394 -0.0214355 10.0016 0.0535644 11.3121C0.114279 12.5835 0.407136 13.7098 1.34642 14.6377C2.28571 15.5656 3.41785 15.856 4.69999 15.9198C6.02142 15.9942 9.98213 15.9942 11.3036 15.9198C12.5857 15.8596 13.7214 15.5692 14.6571 14.6377C15.5928 13.7098 15.8857 12.5835 15.95 11.3121C16.025 10.0016 16.025 6.07748 15.95 4.76707ZM14.2428 12.7181C13.9643 13.4123 13.425 13.9471 12.7214 14.2269C11.6678 14.6412 9.16785 14.5456 8.00356 14.5456C6.83928 14.5456 4.33571 14.6377 3.28571 14.2269C2.58571 13.9506 2.04642 13.4158 1.76428 12.7181C1.34642 11.6733 1.44285 9.19415 1.44285 8.03957C1.44285 6.88498 1.34999 4.40228 1.76428 3.36102C2.04285 2.66686 2.58214 2.13207 3.28571 1.85227C4.33928 1.4379 6.83928 1.53352 8.00356 1.53352C9.16785 1.53352 11.6714 1.44144 12.7214 1.85227C13.4214 2.12852 13.9607 2.66332 14.2428 3.36102C14.6607 4.40582 14.5643 6.88498 14.5643 8.03957C14.5643 9.19415 14.6607 11.6769 14.2428 12.7181Z" fill="#F8EFEA"/>
</svg>
