<svg width="11" height="16" viewBox="0 0 11 16" fill="none" xmlns="http://www.w3.org/2000/svg">
<path d="M5.35068 2.13333C3.45743 2.13333 1.91717 3.84726 1.91717 5.95397C1.91717 6.13264 1.99412 7.15423 3.51341 9.72725C4.1254 10.7637 4.81295 11.7833 5.39872 12.6171C5.80154 12.0381 6.25207 11.3621 6.69379 10.6449C8.72553 7.34601 8.78418 6.08671 8.78418 5.95397C8.78418 3.84726 7.24392 2.13333 5.35068 2.13333ZM5.35068 0C8.30577 0 10.7014 2.66568 10.7014 5.95397C10.7014 9.20593 5.44072 16 5.3517 16C5.3507 16 5.35037 15.9992 5.35068 15.9975C5.37881 15.8434 0 9.24226 0 5.95397C0 2.66568 2.39558 0 5.35068 0Z" fill="#7A4F46"/>
</svg>
