<svg width="40" height="34" viewBox="0 0 40 34" fill="none" xmlns="http://www.w3.org/2000/svg">
<path d="M36.675 19.964L39.9579 6.55779C40.1949 5.58984 39.4022 4.66809 38.3326 4.66809H11.0561L10.4196 1.77995C10.261 1.06007 9.57847 0.543091 8.78674 0.543091H1.66667C0.746181 0.543091 0 1.23564 0 2.08997V3.12122C0 3.97554 0.746181 4.66809 1.66667 4.66809H6.51965L11.398 26.8035C10.2309 27.4265 9.44445 28.5945 9.44445 29.9337C9.44445 31.9271 11.1856 33.5431 13.3333 33.5431C15.4811 33.5431 17.2222 31.9271 17.2222 29.9337C17.2222 28.9235 16.7745 28.0108 16.0539 27.3556H30.6127C29.8922 28.0108 29.4445 28.9235 29.4445 29.9337C29.4445 31.9271 31.1856 33.5431 33.3333 33.5431C35.4811 33.5431 37.2222 31.9271 37.2222 29.9337C37.2222 28.5047 36.3272 27.2697 35.0292 26.685L35.4124 25.1203C35.6494 24.1523 34.8567 23.2306 33.7872 23.2306H15.147L14.6925 21.1681H35.0498C35.828 21.1681 36.5026 20.6683 36.675 19.964Z" fill="#7A4F46"/>
</svg>
