<svg width="15" height="14" viewBox="0 0 15 14" fill="none" xmlns="http://www.w3.org/2000/svg">
<path d="M13.3554 4.21502C13.3655 4.35714 13.3655 4.4993 13.3655 4.64142C13.3655 8.97644 10.066 13.9714 4.03555 13.9714C2.17767 13.9714 0.451787 13.4333 -1 12.4993C-0.73603 12.5298 -0.482248 12.5399 -0.208122 12.5399C1.32485 12.5399 2.73605 12.0222 3.86296 11.1389C2.42133 11.1084 1.2132 10.1643 0.796944 8.86478C1.00001 8.89522 1.20304 8.91553 1.41626 8.91553C1.71067 8.91553 2.00511 8.87491 2.2792 8.80388C0.776663 8.49928 -0.350279 7.1795 -0.350279 5.58558V5.54499C0.0862544 5.78865 0.593912 5.94093 1.13195 5.96121C0.248692 5.37236 -0.329966 4.3673 -0.329966 3.23023C-0.329966 2.6211 -0.167559 2.06273 0.116723 1.57541C1.73095 3.56526 4.15736 4.86474 6.87816 5.00689C6.82741 4.76324 6.79694 4.50945 6.79694 4.25564C6.79694 2.44851 8.25888 0.97644 10.0761 0.97644C11.0203 0.97644 11.8731 1.37238 12.4721 2.01198C13.2132 1.86985 13.9238 1.59572 14.5533 1.2201C14.3096 1.98154 13.7919 2.62113 13.1117 3.0272C13.7716 2.95617 14.4112 2.77338 15 2.5196C14.5534 3.16932 13.995 3.74798 13.3554 4.21502Z" fill="#F8EFEA"/>
</svg>
